<?xml version="1.0" encoding="UTF-8" standalone="no"?>
<svg
   width="16"
   height="16"
   fill="currentColor"
   class="bi bi-gear"
   viewBox="0 0 16 16"
   version="1.1"
   id="svg16"
   sodipodi:docname="gear.svg"
   inkscape:version="1.2 (dc2aedaf03, 2022-05-15)"
   xmlns:inkscape="http://www.inkscape.org/namespaces/inkscape"
   xmlns:sodipodi="http://sodipodi.sourceforge.net/DTD/sodipodi-0.dtd"
   xmlns="http://www.w3.org/2000/svg"
   xmlns:svg="http://www.w3.org/2000/svg">
  <defs
     id="defs20" />
  <sodipodi:namedview
     id="namedview18"
     pagecolor="#ffffff"
     bordercolor="#000000"
     borderopacity="0.25"
     inkscape:showpageshadow="2"
     inkscape:pageopacity="0.0"
     inkscape:pagecheckerboard="0"
     inkscape:deskcolor="#d1d1d1"
     showgrid="false"
     inkscape:zoom="64"
     inkscape:cx="8.375"
     inkscape:cy="8.390625"
     inkscape:window-width="1920"
     inkscape:window-height="1001"
     inkscape:window-x="-9"
     inkscape:window-y="-9"
     inkscape:window-maximized="1"
     inkscape:current-layer="svg16" />
  <path
     d="M8 4.754a3.246 3.246 0 1 0 0 6.492 3.246 3.246 0 0 0 0-6.492zM5.754 8a2.246 2.246 0 1 1 4.492 0 2.246 2.246 0 0 1-4.492 0z"
     id="path12" />
  <path
     d="M9.796 1.343c-.527-1.79-3.065-1.79-3.592 0l-.094.319a.873.873 0 0 1-1.255.52l-.292-.16c-1.64-.892-3.433.902-2.54 2.541l.159.292a.873.873 0 0 1-.52 1.255l-.319.094c-1.79.527-1.79 3.065 0 3.592l.319.094a.873.873 0 0 1 .52 1.255l-.16.292c-.892 1.64.901 3.434 2.541 2.54l.292-.159a.873.873 0 0 1 1.255.52l.094.319c.527 1.79 3.065 1.79 3.592 0l.094-.319a.873.873 0 0 1 1.255-.52l.292.16c1.64.893 3.434-.902 2.54-2.541l-.159-.292a.873.873 0 0 1 .52-1.255l.319-.094c1.79-.527 1.79-3.065 0-3.592l-.319-.094a.873.873 0 0 1-.52-1.255l.16-.292c.893-1.64-.902-3.433-2.541-2.54l-.292.159a.873.873 0 0 1-1.255-.52l-.094-.319zm-2.633.283c.246-.835 1.428-.835 1.674 0l.094.319a1.873 1.873 0 0 0 2.693 1.115l.291-.16c.764-.415 1.6.42 1.184 1.185l-.159.292a1.873 1.873 0 0 0 1.116 2.692l.318.094c.835.246.835 1.428 0 1.674l-.319.094a1.873 1.873 0 0 0-1.115 2.693l.16.291c.415.764-.42 1.6-1.185 1.184l-.291-.159a1.873 1.873 0 0 0-2.693 1.116l-.094.318c-.246.835-1.428.835-1.674 0l-.094-.319a1.873 1.873 0 0 0-2.692-1.115l-.292.16c-.764.415-1.6-.42-1.184-1.185l.159-.291A1.873 1.873 0 0 0 1.945 8.93l-.319-.094c-.835-.246-.835-1.428 0-1.674l.319-.094A1.873 1.873 0 0 0 3.06 4.377l-.16-.292c-.415-.764.42-1.6 1.185-1.184l.292.159a1.873 1.873 0 0 0 2.692-1.115l.094-.319z"
     id="path14" />
  <path
     style="fill:#adb4bc;fill-opacity:1;stroke-width:0.019656"
     d="M 7.7503233,14.949763 C 7.5945272,14.899949 7.4060351,14.907967 7.2997291,14.794317 7.1791282,14.665385 7.1039103,14.522615 7.0011761,14.186921 6.8621923,13.732776 6.7192892,13.605431 6.4380745,13.336859 6.0647268,12.980296 5.7058561,12.823569 5.1670921,12.846229 4.7995971,12.861689 4.7023239,12.951934 4.2945486,13.174905 4.176847,13.239265 3.8953191,13.319358 3.8309765,13.339384 3.3976456,13.474252 2.848211,13.059465 2.7056398,12.601383 2.6282663,12.352781 2.5886872,12.116579 2.7861441,11.754575 3.0068512,11.349947 3.126844,11.095363 3.1263968,10.728101 3.1257914,10.230277 3.0801366,9.8579303 2.7481781,9.5052114 2.4857998,9.2264242 2.2844957,9.162679 1.8753618,9.0373701 1.5190448,8.9282379 1.2820884,8.8200132 1.1624476,8.7106684 0.72516094,8.3110129 0.8108052,7.5198785 1.3287662,7.2471607 1.3898893,7.2149779 1.683453,7.0417232 1.8325885,6.9971875 2.2366664,6.87652 2.3502456,6.8484395 2.5989578,6.6121871 2.852533,6.3713156 3.0665769,6.0896824 3.1599211,5.7480721 3.198646,5.6063516 3.1719561,5.5366952 3.1712854,5.2678133 3.170222,4.8413512 3.1090207,4.6960177 2.8647402,4.2493618 2.7105095,3.9673577 2.6272198,3.7272173 2.6402438,3.5409281 2.6701156,3.1136605 3.216586,2.6950643 3.6403484,2.6625533 3.821399,2.648663 4.0094264,2.6830304 4.2798797,2.8293147 4.7086093,3.0612086 4.8195192,3.1934669 5.1891892,3.2090146 5.7271373,3.2316401 6.0748119,3.1018335 6.4542909,2.7448469 6.7388173,2.4771849 6.8942219,2.2930098 7.0355213,1.8311884 7.1396762,1.4907696 7.2192982,1.1683871 7.3548446,1.0401929 7.6924251,0.72092329 8.2854778,0.86455436 8.6230583,1.1838239 c 0.1355464,0.1281942 0.2593626,0.2958972 0.3635175,0.636316 0.1402215,0.4582978 0.2421866,0.6405812 0.5241282,0.9098477 0.3446137,0.3291209 0.724984,0.5626265 1.208912,0.5622473 0.370855,-2.909e-4 0.651634,-0.079422 1.043584,-0.2941107 0.135645,-0.074299 0.294671,-0.1490513 0.35339,-0.1661155 0.571719,-0.1661467 1.169229,0.3737112 1.067959,0.9649157 -0.01235,0.072092 -0.04769,0.1804462 -0.07854,0.2407863 -0.03084,0.06034 -0.106061,0.2070067 -0.167146,0.3259257 -0.157628,0.3068648 -0.21261,0.5081065 -0.225552,0.8255528 -0.02216,0.5436145 0.239479,0.9375243 0.604186,1.322812 0.260059,0.2747353 0.38939,0.4228463 0.839342,0.5605469 0.335864,0.1027861 0.505409,0.1370341 0.634352,0.2576458 0.359485,0.3362555 0.506237,0.9675302 0.146751,1.3037857 -0.128932,0.1206009 -0.304847,0.240013 -0.640541,0.3427472 -0.454145,0.1389838 -0.747219,0.3481782 -1.015791,0.6293929 -0.333147,0.3488291 -0.463514,0.6282803 -0.463514,1.1290673 0,0.35987 0.07709,0.606323 0.295421,1.006844 0.07366,0.135135 0.147889,0.326889 0.164953,0.385608 0.166147,0.571719 -0.440002,1.268665 -1.031206,1.167395 -0.07209,-0.01235 -0.290932,-0.06985 -0.351272,-0.100757 -0.06034,-0.03091 -0.240152,-0.117478 -0.359071,-0.178862 -0.306054,-0.157979 -0.418848,-0.14655 -0.737165,-0.15883 C 10.258487,12.835705 9.945623,12.992 9.572968,13.347902 9.2917533,13.616474 9.1819959,13.710673 9.0430121,14.164818 8.9402779,14.500512 8.9203027,14.698524 8.7997018,14.827456 8.5793061,15.063077 8.0186605,15.145592 7.7171717,15.049194 Z M 8.6245219,11.1953 C 8.9219424,11.136168 9.1583436,11.054296 9.4545455,10.907842 9.786502,10.743709 10.031688,10.567139 10.299413,10.299413 10.567139,10.031688 10.743709,9.786502 10.907842,9.4545455 11.054993,9.1569337 11.136217,8.921746 11.198166,8.6138996 11.23546,8.4285761 11.242594,8.3299876 11.242594,8 c 0,-0.4365044 -0.03373,-0.6677606 -0.14857,-1.0187224 C 11.011675,6.729624 10.806218,6.3246319 10.648734,6.1035349 10.478755,5.8648957 10.135104,5.5212446 9.8964651,5.3512658 9.6753681,5.1937818 9.270376,4.9883245 9.0187224,4.9059764 8.6624486,4.7893938 8.4374701,4.7570386 7.990172,4.7580564 7.5486402,4.7590608 7.3787878,4.7842589 6.9900814,4.9064214 6.7368829,4.9859965 6.3323292,5.1891684 6.1035349,5.351656 5.8655613,5.5206626 5.5217622,5.8642223 5.3511322,6.1035349 5.0965409,6.460605 4.8825197,6.9685956 4.7922905,7.4299754 c -0.0487,0.2490223 -0.0487,0.8910269 0,1.1400492 0.090245,0.4614622 0.3024659,0.9647072 0.5593655,1.3264405 0.1694829,0.2386439 0.5132348,0.5823959 0.7518789,0.7518789 0.4210735,0.299043 0.9910717,0.520578 1.5054829,0.585122 0.2350193,0.02949 0.7778306,0.0091 1.0155041,-0.03817 z"
     id="path396"
     sodipodi:nodetypes="cssscsssssssssssssssssssssssssssscsssssssssssssssssscccssssscsssssssssssscc" />
  <path
     style="fill:#adb4bc;fill-opacity:1;stroke-width:0.019656"
     d="M 7.6710203,15.959143 C 7.261598,15.885105 6.8494856,15.658628 6.6109317,15.376569 6.4048014,15.132848 6.2878968,14.90356 6.1732737,14.518179 6.133442,14.384259 6.0821916,14.234989 6.0593838,14.186468 5.9901537,14.039187 5.8234186,13.876915 5.656607,13.794472 5.5254813,13.729666 5.488722,13.720634 5.3273651,13.713577 5.0943587,13.703386 4.9836476,13.73486 4.6879607,13.895352 4.2429462,14.136896 4.0576279,14.190503 3.6658477,14.191019 3.4297901,14.191329 3.3526893,14.18372 3.2169704,14.146718 2.8834811,14.055795 2.6069867,13.894134 2.3564265,13.643573 2.0086089,13.295756 1.8277124,12.895305 1.804154,12.421007 1.7856332,12.048131 1.8649768,11.748733 2.0925983,11.332582 2.2651298,11.017149 2.2967778,10.909392 2.2864228,10.672635 2.2793657,10.511278 2.270334,10.474519 2.2055281,10.343393 2.1230854,10.176581 1.960813,10.009846 1.8135324,9.9406162 1.7650111,9.9178084 1.6157407,9.866558 1.4818205,9.8267263 0.82907428,9.632581 0.45543817,9.3401885 0.20635996,8.8286025 0.06577841,8.5398597 0.02132114,8.3407803 0.02132114,8 c 0,-0.3401232 0.04445506,-0.5398518 0.18391693,-0.8263057 C 0.45626376,6.6580892 0.82600881,6.3683306 1.4818205,6.1732737 1.6157407,6.133442 1.7650111,6.0821916 1.8135324,6.0593838 1.960813,5.9901537 2.1230854,5.8234186 2.2055281,5.656607 2.270334,5.5254813 2.2793657,5.488722 2.2864228,5.3273651 2.2966137,5.0943587 2.2651399,4.9836476 2.1046479,4.6879607 1.8631045,4.2429462 1.8094975,4.0576279 1.8089814,3.6658477 1.8086705,3.4297901 1.8162798,3.3526893 1.8532824,3.2169704 1.9442052,2.8834811 2.1058663,2.6069867 2.3564265,2.3564265 2.7042443,2.0086089 3.104695,1.8277124 3.5789932,1.804154 3.9518691,1.785633 4.2512666,1.864977 4.6674182,2.0925983 4.9819074,2.2646139 5.0909185,2.2967737 5.3247072,2.2865083 5.4745706,2.2799283 5.5252959,2.2685313 5.6365313,2.2164463 5.8006575,2.1395961 5.9612279,1.9907029 6.0401016,1.8422251 6.072969,1.7803526 6.1326734,1.6191646 6.1727778,1.4840295 6.3679471,0.82638988 6.6573743,0.45661179 7.1736943,0.20523807 7.4601482,0.0657762 7.6598768,0.02132114 8,0.02132114 c 0.3401232,0 0.5398518,0.04445506 0.8263057,0.18391693 0.516238,0.25133384 0.8053373,0.62063664 1.0010694,1.27879143 0.096194,0.323455 0.15101,0.4301743 0.2881429,0.5609775 0.168105,0.1603445 0.333153,0.2315506 0.559775,0.2415013 0.230048,0.010101 0.341978,-0.021867 0.636746,-0.1818604 0.445015,-0.2415434 0.630333,-0.2951504 1.022113,-0.2956665 0.236058,-3.109e-4 0.313159,0.0073 0.448878,0.044301 0.333489,0.090923 0.609983,0.2525839 0.860543,0.5031441 0.347818,0.3478178 0.528715,0.7482685 0.552273,1.2225667 0.01852,0.3728759 -0.06082,0.6722734 -0.288444,1.088425 -0.172016,0.3144892 -0.204176,0.4235003 -0.19391,0.657289 0.0066,0.1498634 0.01798,0.2005887 0.07006,0.3118241 0.07685,0.1641262 0.225743,0.3246966 0.374221,0.4035703 0.06187,0.032867 0.22306,0.092336 0.358196,0.1321529 0.639461,0.1884124 1.020054,0.4833243 1.267996,0.9825367 0.14751,0.2969989 0.193421,0.4938598 0.194823,0.8353808 0.0015,0.3728959 -0.061,0.6221814 -0.23599,0.9407503 -0.243666,0.4436013 -0.613984,0.7141957 -1.226829,0.8964528 -0.323455,0.096194 -0.430175,0.15101 -0.560978,0.2881429 -0.160345,0.168105 -0.231551,0.333153 -0.241501,0.559775 -0.0101,0.230048 0.02187,0.341978 0.18186,0.636746 0.241544,0.445015 0.295151,0.630333 0.295667,1.022113 4.14e-4,0.314639 -0.03485,0.493362 -0.145479,0.737354 -0.187859,0.414315 -0.559719,0.786175 -0.974034,0.974034 -0.243992,0.110631 -0.422715,0.145893 -0.737354,0.145479 -0.3921,-5.17e-4 -0.582853,-0.05563 -1.022113,-0.295287 -0.293605,-0.160192 -0.406035,-0.19237 -0.636746,-0.18224 -0.226622,0.0099 -0.39167,0.08116 -0.559775,0.241501 -0.1371329,0.130803 -0.1919489,0.237523 -0.2881429,0.560978 -0.1476306,0.496412 -0.332808,0.801793 -0.6371294,1.050706 -0.4129834,0.337791 -0.9929973,0.487628 -1.5192254,0.392466 z M 8.232342,14.977981 c 0.1560197,-0.04064 0.2459377,-0.09012 0.3703186,-0.203801 0.1374027,-0.125578 0.1926108,-0.229834 0.287659,-0.543222 0.104878,-0.345798 0.158809,-0.471342 0.2847347,-0.662826 0.2460266,-0.374111 0.6041496,-0.638621 1.0503637,-0.7758 0.15803,-0.04858 0.200023,-0.05305 0.496941,-0.05288 0.421046,2.41e-4 0.526434,0.02792 0.972973,0.255561 0.183783,0.09369 0.378378,0.182235 0.432432,0.196769 0.289266,0.07777 0.598426,-0.01159 0.825427,-0.238592 0.193128,-0.193128 0.280079,-0.422884 0.260026,-0.687086 -0.01259,-0.1659 -0.04242,-0.245162 -0.203718,-0.541289 -0.228941,-0.420318 -0.293396,-0.672049 -0.27681,-1.081081 0.0075,-0.185957 0.02245,-0.287673 0.06134,-0.418317 0.131015,-0.4402103 0.398786,-0.8035422 0.774106,-1.0503637 0.19109,-0.125667 0.317104,-0.1798765 0.659703,-0.2837963 0.307711,-0.093337 0.384017,-0.1310734 0.514412,-0.2543953 0.354273,-0.3350567 0.354273,-0.9386687 0,-1.2737254 C 14.611852,7.2398154 14.535546,7.2020794 14.227835,7.108742 13.883027,7.0041521 13.753555,6.9482748 13.565887,6.8230591 13.192627,6.5740136 12.926063,6.2124452 12.792905,5.7745816 12.745863,5.6198927 12.74024,5.5693034 12.738756,5.2874693 12.73657,4.8721944 12.767563,4.7536896 12.995794,4.3046683 13.089208,4.1208845 13.177466,3.9262899 13.191922,3.8722359 13.26956,3.5819393 13.179845,3.2715412 12.953309,3.046683 12.758449,2.8532657 12.529751,2.7667719 12.266105,2.7867827 12.100205,2.7993743 12.020943,2.8292051 11.724816,2.9905012 11.304498,3.2194418 11.052767,3.2838974 10.643735,3.2673114 10.457778,3.259771 10.356062,3.2448566 10.225418,3.2059744 9.7852077,3.074959 9.4218758,2.8071876 9.1750543,2.4318683 9.0491286,2.2403843 8.9951976,2.1148397 8.8903196,1.7690418 8.7966223,1.4601084 8.7423951,1.3560808 8.6095687,1.2304592 8.443187,1.0731022 8.2369307,0.99262899 8,0.99262899 c -0.2369307,0 -0.443187,0.0804732 -0.6095687,0.23783021 C 7.2576049,1.3560808 7.2033777,1.4601084 7.1096804,1.7690418 7.004043,2.1173433 6.9486221,2.2458475 6.8219226,2.4362656 6.4880928,2.9379803 5.9639874,3.2383314 5.3719495,3.2672065 4.9670901,3.2869523 4.7182817,3.2234565 4.2599497,2.9834245 4.1056248,2.9026032 3.9331432,2.824173 3.8766573,2.8091351 3.5823316,2.7307784 3.2755342,2.8183363 3.0452714,3.0464073 2.8537508,3.236105 2.7665944,3.4679096 2.7867827,3.733895 2.7994097,3.900261 2.8291306,3.9789506 2.9927404,4.2791935 3.2125264,4.682526 3.286412,4.9737539 3.2672995,5.3613979 3.2440409,5.8331349 3.0683155,6.2351819 2.7389209,6.5702899 2.4852556,6.8283552 2.2642718,6.952217 1.7886978,7.1028914 1.4464725,7.2113175 1.3420723,7.266626 1.2123502,7.4082255 1.0549291,7.58006 0.9799861,7.8111381 0.99811459,8.0687961 1.0178475,8.3492572 1.1460349,8.5724932 1.3764786,8.7277099 c 0.086857,0.058503 0.1914906,0.1012507 0.4023912,0.1643949 0.3348926,0.1002681 0.4830895,0.1641256 0.6713582,0.2892865 0.3555619,0.236377 0.6220672,0.6031394 0.7566465,1.0412897 0.049498,0.161151 0.053845,0.201622 0.053673,0.499678 -2.417e-4,0.421046 -0.027924,0.526434 -0.2555613,0.972973 -0.09369,0.183783 -0.1822354,0.378378 -0.1967687,0.432432 -0.077773,0.289266 0.01159,0.598426 0.2385914,0.825427 0.1931283,0.193128 0.4228846,0.280079 0.6870862,0.260026 0.166805,-0.01266 0.2419825,-0.04128 0.5609453,-0.21357 0.4046068,-0.218548 0.6746219,-0.285586 1.0761738,-0.267189 0.5920167,0.02712 1.124903,0.333343 1.4542545,0.835674 0.1256991,0.191718 0.179691,0.317546 0.2844118,0.662826 0.042625,0.140541 0.1004171,0.297639 0.1284271,0.349107 0.061024,0.112132 0.2224069,0.269398 0.3358296,0.327262 0.191495,0.09769 0.4486481,0.125288 0.6584049,0.07065 z"
     id="path5651" />
  <path
     style="fill:#adb4bc;fill-opacity:1;stroke-width:0.019656"
     d="M 7.6385844,15.941435 C 7.4504104,15.898692 7.3288676,15.8554 7.1547912,15.769115 6.6769751,15.532275 6.4008493,15.178928 6.1908723,14.535627 6.1397061,14.37887 6.0758705,14.206795 6.0490154,14.153239 5.9818166,14.019225 5.8161871,13.863675 5.6573366,13.785395 c -0.1195721,-0.05892 -0.1530469,-0.06616 -0.3336894,-0.07216 -0.2542445,-0.0084 -0.3365323,0.01488 -0.6787715,0.192392 -0.1450105,0.07521 -0.3472189,0.164768 -0.4493516,0.19901 -0.1646976,0.05522 -0.2179255,0.06336 -0.4707084,0.07202 -0.245304,0.0084 -0.309322,0.0039 -0.4594986,-0.03208 C 2.9323438,14.064743 2.623908,13.888789 2.3675595,13.63244 2.192094,13.456975 2.0764564,13.292274 1.9751866,13.073589 1.8722178,12.851235 1.8363134,12.69633 1.8238536,12.420681 1.8062006,12.030143 1.864056,11.803119 2.0956664,11.354088 2.2720157,11.012194 2.2951894,10.930009 2.286766,10.676353 2.2807672,10.49571 2.2735281,10.462235 2.2146046,10.342663 2.1390219,10.189286 1.982626,10.019612 1.8584331,9.9562532 1.8111202,9.9321158 1.6307378,9.8642542 1.4575834,9.8054494 0.77837745,9.5747851 0.48149527,9.33857 0.22601966,8.8255528 0.06673882,8.5057032 0.04088859,8.3904295 0.04088859,8 0.04088859,7.6164859 0.066697,7.4969217 0.2148446,7.1941032 0.47168987,6.6691033 0.77224603,6.427202 1.4562294,6.1949802 1.6301285,6.1359393 1.8110814,6.0679039 1.8583469,6.0437909 1.979769,5.9818459 2.1415214,5.805635 2.2163546,5.6537816 2.2733162,5.5381944 2.2808077,5.5030687 2.286766,5.3236472 2.2952265,5.0688735 2.2706895,4.9823308 2.0933889,4.641599 2.0184425,4.4975691 1.9292186,4.2964993 1.8951138,4.1947772 1.8401776,4.030923 1.8319912,3.9773201 1.8233403,3.7248157 1.8149362,3.4795117 1.8194049,3.4154937 1.8554151,3.2653171 1.9352573,2.9323438 2.1112108,2.623908 2.3675595,2.3675595 2.5429527,2.1921661 2.7076132,2.0765356 2.9264112,1.9751139 3.1868841,1.854374 3.3171684,1.828531 3.6658477,1.8284403 4.0529394,1.82834 4.1860026,1.8634991 4.6090082,2.0776533 4.9987214,2.2749525 5.0680955,2.2952525 5.3236472,2.286766 5.503405,2.2807965 5.5380784,2.2733734 5.6547414,2.2158823 5.8004132,2.1440955 5.9836118,1.9763076 6.0426298,1.8606227 6.0637883,1.8191485 6.1309966,1.6400528 6.1919815,1.4626321 6.4309217,0.76749455 6.6680898,0.47218567 7.1941032,0.2148446 7.4928281,0.06869972 7.6170538,0.0414586 7.990172,0.04027693 8.3764059,0.03905372 8.5140311,0.06956066 8.8280006,0.22599585 9.3384967,0.48035021 9.5752609,0.77844195 9.805134,1.4562294 c 0.058978,0.1738991 0.1269818,0.3548908 0.1511192,0.4022037 0.063298,0.124074 0.2330078,0.2805869 0.3858178,0.3558148 0.118162,0.058171 0.153707,0.065929 0.332377,0.072543 0.253585,0.00939 0.33714,-0.014233 0.680676,-0.1924162 0.145011,-0.075213 0.347219,-0.164768 0.449352,-0.1990104 0.164697,-0.055219 0.217925,-0.063363 0.470708,-0.072024 0.245304,-0.0084 0.309322,-0.00394 0.459499,0.032075 0.332973,0.079842 0.641409,0.2557957 0.897757,0.5121444 0.175466,0.1754656 0.291104,0.3401665 0.392373,0.5588517 0.104133,0.2248672 0.139191,0.3782451 0.151372,0.6622553 0.0168,0.3917068 -0.04517,0.6252621 -0.290614,1.0952476 -0.155827,0.2983831 -0.180617,0.3904065 -0.172337,0.6397331 0.006,0.1797578 0.01339,0.2144312 0.07088,0.3310942 0.08521,0.1729144 0.250398,0.3395141 0.405554,0.4090237 0.06595,0.029546 0.22163,0.086744 0.345955,0.1271068 0.651589,0.211545 0.991622,0.4806695 1.242726,0.9835753 0.171077,0.3426309 0.228819,0.7190754 0.171854,1.1203931 -0.05836,0.4111355 -0.29498,0.8408024 -0.607719,1.1035259 -0.193797,0.1628041 -0.420604,0.2782789 -0.798717,0.4066536 -0.1739,0.059041 -0.354891,0.127096 -0.402204,0.1512334 -0.124074,0.063298 -0.280587,0.2330076 -0.355815,0.3858176 -0.05817,0.118162 -0.06593,0.153707 -0.07254,0.332377 -0.0094,0.254098 0.01543,0.341935 0.193402,0.683953 0.07495,0.14403 0.164853,0.3451 0.199792,0.446822 0.06162,0.179413 0.06355,0.19495 0.06448,0.519101 0.0011,0.394746 -0.01909,0.491316 -0.164534,0.786241 -0.189749,0.384755 -0.511025,0.706031 -0.89578,0.89578 -0.294925,0.145447 -0.391495,0.165656 -0.786241,0.164534 -0.324421,-9.22e-4 -0.33956,-0.0028 -0.519848,-0.06473 -0.102133,-0.03508 -0.304341,-0.125314 -0.449352,-0.200527 -0.343536,-0.178184 -0.427091,-0.201804 -0.680676,-0.192417 -0.17867,0.0066 -0.214215,0.01437 -0.332377,0.07254 -0.15281,0.07523 -0.32252,0.231741 -0.3858178,0.355815 -0.024137,0.04731 -0.091331,0.225728 -0.1493189,0.396477 -0.057988,0.17075 -0.1401003,0.379404 -0.1824716,0.463676 -0.2177905,0.433164 -0.6118038,0.751775 -1.1141107,0.900904 -0.2216173,0.0658 -0.6658956,0.08558 -0.8717676,0.03881 z m 0.652663,-0.973696 c 0.1608735,-0.04969 0.3480737,-0.187596 0.4372483,-0.322115 0.039918,-0.06022 0.1134577,-0.239212 0.1843743,-0.448768 0.1328996,-0.392714 0.1626427,-0.457845 0.3004865,-0.657999 0.2554345,-0.3709 0.6806649,-0.658895 1.1284065,-0.764234 0.172751,-0.04064 0.682797,-0.02861 0.862168,0.02034 0.06486,0.0177 0.281573,0.110576 0.481573,0.206388 0.2,0.09581 0.397793,0.184919 0.439541,0.198014 0.04609,0.01446 0.147504,0.02068 0.258186,0.01584 0.16166,-0.0071 0.198793,-0.01613 0.328235,-0.08011 0.184601,-0.09123 0.346037,-0.255382 0.434184,-0.441477 0.05979,-0.126228 0.0632,-0.145632 0.0632,-0.360086 V 12.10686 l -0.191143,-0.392496 c -0.234451,-0.481427 -0.270589,-0.61274 -0.270294,-0.982177 2.3e-4,-0.289619 0.02776,-0.447247 0.117241,-0.671283 C 13.035928,9.6320798 13.41151,9.2330984 13.81351,9.0529329 13.88095,9.0227099 14.075628,8.9517525 14.246133,8.8952509 14.602859,8.7770388 14.702304,8.717671 14.834637,8.543919 14.953519,8.3878282 15.009237,8.2142532 15.009237,8 c 0,-0.2142532 -0.05572,-0.3878282 -0.1746,-0.543919 C 14.702304,7.282329 14.602859,7.2229612 14.246128,7.1047491 13.857291,6.9758974 13.728894,6.918386 13.542702,6.7896715 13.167939,6.5305981 12.987323,6.0909778 12.716693,5.7437575 12.621753,5.6219486 12.687823,5.124344 12.716606,4.9473046 12.746266,4.7645006 12.783576,4.657187 12.978172,4.2504016 13.170729,3.847896 13.197026,3.7655251 13.166996,3.538231 13.130956,3.2654239 12.914546,3.1055167 12.649511,2.9745292 12.522802,2.9119062 12.544011,2.8429695 12.391646,2.8356845 12.294456,2.8974405 12.196444,2.8529695 12.14664,2.8655155 12.09735,2.8779285 11.934205,3.0639577 11.721607,3.0892444 11.359259,3.377563 11.030365,3.3566222 10.712531,3.3522813 10.351083,3.3473448 10.281323,3.2297111 10.005923,3.1128806 9.6342367,2.9552033 9.2606779,2.6037386 9.0734693,2.2355764 9.0500234,2.1894679 8.9777537,1.9948733 8.91287,1.8031441 8.8398593,1.5873999 8.7687338,1.4150767 8.7262426,1.3509827 8.4698695,0.96426748 7.8537586,0.87098982 7.461782,1.1595466 7.2899286,1.2860578 7.2235023,1.4001685 7.08713,1.8031441 7.0222463,1.9948733 6.9500558,2.1894679 6.9267064,2.2355764 6.7965488,2.4926034 6.51695,2.8043705 6.2703684,2.967427 6.0996698,3.0803047 5.8732499,3.1722909 5.6550777,3.2173975 5.4990667,3.2496523 5.4143114,3.2551406 5.1891892,3.2475654 4.8457122,3.2360077 4.7645553,3.2117242 4.2653563,2.9711414 L 3.8918919,2.7911548 H 3.6658477 c -0.2133119,0 -0.2334882,0.00353 -0.3581982,0.062604 C 2.9795929,3.009166 2.7811876,3.3132721 2.7814365,3.6603135 2.7815741,3.8643003 2.7992786,3.9202634 2.9727568,4.2653563 3.2021535,4.7216861 3.2532362,4.903874 3.252813,5.2641844 3.2522213,5.7671463 3.0908061,6.1766148 2.752889,6.5323534 2.5040045,6.7943642 2.2860688,6.9224525 1.8167664,7.0825447 1.3635415,7.2371526 1.2564775,7.3020179 1.1305141,7.4983151 c -0.19099711,0.297643 -0.18436049,0.7554793 0.014755,1.0178968 0.1537168,0.2025857 0.26464,0.2678832 0.6881854,0.4051163 0.3031717,0.098231 0.4595603,0.1697004 0.6417066,0.2932597 0.3509277,0.2380529 0.6517971,0.6918732 0.7504788,1.1319951 0.040918,0.182495 0.029048,0.674696 -0.020676,0.857348 -0.017658,0.06486 -0.1104984,0.281573 -0.2063111,0.481573 -0.095813,0.2 -0.1843261,0.395997 -0.1966966,0.435549 -0.02925,0.09352 -0.029535,0.322966 -5.366e-4,0.431975 0.064265,0.241586 0.2675599,0.48017 0.5049668,0.592622 0.1262874,0.05982 0.1455605,0.0632 0.3606505,0.0632 h 0.227233 l 0.3722756,-0.181041 c 0.5212025,-0.253467 0.5861456,-0.271047 1.001268,-0.271047 0.2885438,0 0.3550476,0.0061 0.4872432,0.04437 0.3319188,0.09621 0.5896273,0.250183 0.8237891,0.4922 0.2619277,0.270713 0.3422404,0.412969 0.5057649,0.895846 0.063498,0.187505 0.1298538,0.368772 0.1474575,0.402813 0.041618,0.08048 0.2288454,0.267278 0.3107691,0.310055 0.2120659,0.110732 0.5161726,0.137426 0.7484103,0.06569 z"
     id="path5653"
     sodipodi:nodetypes="cssscccsccssssssssssssssssssssssssssssssssscssccsssscssssssssssscccsssscssssccccsssssssccsscssssssssssscccscccsssssssssssscsccssssssssssssssscsscsssscc" />
  <path
     style="fill:#adb4bc;fill-opacity:1;stroke-width:0.00390625"
     d=""
     id="path5655" />
  <path
     style="fill:#adb4bc;fill-opacity:1;stroke-width:0.0078125"
     d="M 7.8554687,11.237388 C 7.56391,11.225799 7.2496913,11.167196 6.96875,11.072014 6.6725623,10.971666 6.3937208,10.830208 6.1302916,10.64666 5.756212,10.386014 5.4072015,10.000102 5.1765667,9.5920947 4.953387,9.1972762 4.8118698,8.7387898 4.7695475,8.2734375 c -0.010076,-0.1107915 -0.010076,-0.4360835 0,-0.546875 0.071542,-0.786632 0.4101042,-1.5013467 0.9698226,-2.0473213 0.536743,-0.5235633 1.2297497,-0.8408068 1.9871924,-0.9096937 0.1107915,-0.010076 0.4360835,-0.010076 0.546875,0 0.5644914,0.051339 1.0858424,0.237215 1.5507812,0.5528975 0.7112743,0.4829383 1.2090333,1.245674 1.3624333,2.0877112 0.04245,0.2330087 0.04772,0.2981903 0.04772,0.5898438 0,0.2917313 -0.0053,0.3572042 -0.04776,0.5898437 -0.157252,0.8616894 -0.673142,1.6371983 -1.4099931,2.1195643 -0.4850228,0.317511 -1.0689844,0.507789 -1.6125634,0.525435 -0.06875,0.0022 -0.1355469,0.0049 -0.1484375,0.006 -0.012891,0.0011 -0.084961,-4.85e-4 -0.1601563,-0.0035 z m 0.40625,-1.003524 C 8.7686919,10.175169 9.2239487,9.9545889 9.5905625,9.5900151 9.9525888,9.2300031 10.175623,8.7674083 10.23475,8.2539062 10.25112,8.1117359 10.246941,7.8027763 10.22693,7.6757812 10.148907,7.1806298 9.933968,6.7529808 9.5904936,6.4095064 9.2448807,6.0638935 8.8182908,5.8504002 8.3164062,5.7718704 8.1875099,5.751702 7.8124901,5.751702 7.6835937,5.7718704 7.1814842,5.8504355 6.7536205,6.0645769 6.409708,6.4094375 6.0646348,6.7554619 5.8509127,7.1806038 5.773107,7.6757812 5.756122,7.7838794 5.749074,8.0960064 5.760886,8.2169802 5.832632,8.951741 6.2524774,9.5956873 6.8996433,9.9635705 c 0.2430172,0.1381435 0.5433272,0.2357805 0.8308251,0.2701175 0.1266919,0.01513 0.4012913,0.01522 0.5312503,1.76e-4 z"
     id="path8730" />
  <path
     style="fill:#adb4bc;fill-opacity:1;stroke-width:0.0078125"
     d=""
     id="path8732" />
  <path
     style="fill:#adb4bc;fill-opacity:1;stroke-width:0.00390625"
     d="M 2.9316406,8.7792969 V 6.2675781 h 1.1547462 1.1547461 l -0.00663,0.010123 C 5.2130236,6.3104783 5.1436778,6.4384693 5.1055924,6.515625 4.9818109,6.7663888 4.8890698,7.0178283 4.8246393,7.2773437 c -0.036109,0.1454399 -0.047477,0.2157628 -0.059674,0.3691407 -0.00941,0.1183189 -0.010262,0.5558278 -0.00133,0.6816406 0.00417,0.058708 0.00639,0.075923 0.00781,0.060547 0.00176,-0.019055 0.00279,-0.014857 0.00912,0.037109 0.00879,0.072267 0.02957,0.190664 0.047852,0.2726832 0.00757,0.03396 0.012676,0.065172 0.011347,0.06936 -0.00417,0.013145 0.052635,0.2010742 0.099701,0.3298315 0.1258841,0.3443789 0.301431,0.6690936 0.4857126,0.8984375 0.1537277,0.1913188 0.3913836,0.4288288 0.5807681,0.5804128 0.4074181,0.3261 1.0547368,0.59258 1.5975688,0.657668 0.2285856,0.02741 0.7148442,0.01281 0.9765625,-0.02932 0.1738989,-0.02799 0.4135266,-0.0961 0.59375,-0.168764 0.2077832,-0.08377 0.423761,-0.193194 0.5912906,-0.299565 0.3492921,-0.221778 0.7098901,-0.57556 0.9378521,-0.9201213 0.08202,-0.1239638 0.136574,-0.2199153 0.211008,-0.3710938 0.132478,-0.269066 0.21051,-0.4873518 0.269505,-0.7539062 0.0529,-0.2389967 0.06281,-0.3611011 0.05932,-0.7304688 -0.002,-0.2115972 -0.0046,-0.2728829 -0.01647,-0.3925781 -0.02777,-0.2792593 -0.109371,-0.5728855 -0.238542,-0.8583039 -0.05438,-0.1201666 -0.150475,-0.3067543 -0.209032,-0.4058948 -0.01045,-0.01769 -0.019,-0.033159 -0.019,-0.034374 0,-0.00121 0.170507,-0.00221 0.378906,-0.00221 h 0.378906 V 8.7792969 11.291016 H 7.2246094 2.9316406 Z m 1.9049308,-0.024414 c -0.00108,-0.00269 -0.00197,-4.883e-4 -0.00197,0.00488 0,0.00537 8.867e-4,0.00757 0.00197,0.00488 0.00108,-0.00269 0.00108,-0.00708 0,-0.00977 z m -0.017884,-0.071646 c -0.00845,-0.034179 -0.015493,-0.059733 -0.015657,-0.056787 -2.636e-4,0.00477 0.02029,0.096975 0.025648,0.1150554 0.00116,0.00392 0.00285,0.0064 0.00374,0.0055 8.954e-4,-8.954e-4 -0.00528,-0.029592 -0.013732,-0.063771 z M 4.7931911,8.5644531 c -0.00514,-0.026855 -0.00951,-0.045312 -0.0097,-0.041016 -4.797e-4,0.010559 0.016277,0.098682 0.017827,0.09375 6.751e-4,-0.00215 -0.00298,-0.025879 -0.00812,-0.052734 z m -0.011131,-0.071243 c -9.343e-4,-0.00486 -0.00173,-0.0018 -0.00178,0.00679 -4.34e-5,0.00859 7.211e-4,0.012569 0.0017,0.00883 9.777e-4,-0.00373 0.00101,-0.010766 7.89e-5,-0.015625 z m -0.00502,-0.047589 c -0.0015,-0.018547 -0.00358,-0.032874 -0.00462,-0.031838 -0.00104,0.00104 -6.224e-4,0.017029 9.195e-4,0.035539 0.00154,0.01851 0.00362,0.032837 0.00462,0.031838 9.992e-4,-9.992e-4 5.855e-4,-0.016992 -9.195e-4,-0.035539 z"
     id="path8734" />
  <path
     style="fill:#adb4bc;fill-opacity:1;stroke-width:0.00390625"
     d="M 2.9316406,8.7792969 V 6.2675781 h 1.1544343 1.1544344 l -0.00469,0.00879 c -0.00258,0.00483 -0.011668,0.020191 -0.020192,0.034127 -0.046606,0.076189 -0.1377594,0.2568795 -0.190193,0.3770049 -0.1243911,0.2849797 -0.225552,0.6291041 -0.249811,0.8497953 -0.013901,0.1264565 -0.016429,0.1843588 -0.018074,0.4138766 -0.00183,0.2549217 0.00457,0.4452419 0.014753,0.4389481 0.00241,-0.00149 0.00295,0.00677 0.00147,0.022513 -0.00128,0.013677 -7.861e-4,0.034535 0.00111,0.046351 l 0.00344,0.021484 9.312e-4,-0.019531 c 8.58e-4,-0.017997 0.00136,-0.01677 0.00638,0.015625 0.00551,0.035577 0.010838,0.055351 0.0076,0.028233 -0.0012,-0.010058 -3.971e-4,-0.013895 0.00253,-0.012088 0.00296,0.00183 0.00348,-0.00139 0.00167,-0.010447 C 4.7861116,8.4256753 4.7678929,8.2478534 4.7672291,8.1875 4.7669927,8.1660156 4.7656562,8.1525144 4.7642591,8.1574972 4.7605918,8.1705759 4.7629902,7.9183788 4.76754,7.8125 4.780282,7.5159787 4.8520627,7.1747618 4.9660071,6.8690664 5.0369464,6.6787472 5.1389628,6.4695861 5.2417539,6.3037109 L 5.264145,6.2675781 H 5.9127155 6.5612861 L 6.5443149,6.281647 C 6.4605461,6.3510901 6.3396585,6.4743849 6.2593703,6.5722656 6.0044498,6.8830434 5.8449959,7.2379039 5.7758002,7.6484375 c -0.010839,0.064308 -0.015172,0.120493 -0.020193,0.2618656 -0.00666,0.1875337 4.943e-4,0.3248294 0.024116,0.4627438 0.065809,0.3842169 0.226484,0.7425656 0.4658911,1.0390625 0.2230884,0.2762867 0.5271214,0.5102433 0.8403229,0.6466376 0.2243879,0.09772 0.4862543,0.165725 0.6979328,0.181258 0.1391008,0.01021 0.3620215,0.0083 0.4758953,-0.004 0.1869836,-0.02026 0.4062754,-0.0757 0.5860047,-0.14815 C 9.292884,9.907614 9.6848906,9.5710333 9.935323,9.1523438 10.090657,8.8926455 10.193275,8.5936427 10.232272,8.2871094 10.253131,8.1231468 10.250065,7.8054398 10.226221,7.6601562 10.155327,7.2281802 9.9820434,6.851771 9.7065547,6.5313307 9.6464945,6.4614703 9.553275,6.3671355 9.4872836,6.3094357 l -0.047873,-0.041858 h 0.6480084 0.648008 l 0.03247,0.053498 c 0.155515,0.2562141 0.27832,0.5404672 0.355558,0.8230006 0.03537,0.1293789 0.06984,0.2983515 0.08894,0.4360017 0.01619,0.1166835 0.01807,0.1603448 0.01807,0.4199219 0,0.2595771 -0.0019,0.3032384 -0.01807,0.4199219 -0.08817,0.6353431 -0.344986,1.2081135 -0.757583,1.6896272 -0.109107,0.127331 -0.253102,0.269196 -0.385183,0.379485 -0.4942758,0.412727 -1.1320012,0.678732 -1.7630055,0.735379 -0.024715,0.0022 -0.1068754,0.0067 -0.1825789,0.01 -0.1405524,0.0061 -0.259986,0.0042 -0.3838125,-0.006 C 7.1849922,11.182616 6.6603389,10.998208 6.1887024,10.683035 6.00616,10.56105 5.8637426,10.442211 5.6971865,10.272893 5.2811052,9.8499113 5.007483,9.3654854 4.8611979,8.7928427 4.8416552,8.7163419 4.8030683,8.5316205 4.802342,8.5110911 c -3.367e-4,-0.00951 -9.204e-4,-0.00887 -0.00411,0.00453 -0.00282,0.011868 -0.00167,0.027365 0.0048,0.064453 0.00468,0.026855 0.00957,0.050586 0.010854,0.052734 0.00129,0.00215 0.00795,0.025879 0.014797,0.052734 0.00685,0.026855 0.017929,0.069922 0.024617,0.095703 0.00669,0.025781 0.01305,0.050391 0.014139,0.054687 0.00144,0.00568 4.875e-4,0.00514 -0.00348,-0.00195 -0.003,-0.00537 -0.014009,-0.044482 -0.024455,-0.086914 -0.011323,-0.04599 -0.020858,-0.077148 -0.023608,-0.077148 -0.00344,0 -0.0032,0.00573 9.478e-4,0.022461 0.011711,0.047297 0.014344,0.055664 0.01752,0.055664 0.0018,0 0.00236,0.00238 0.00125,0.00529 -0.00545,0.014206 0.072799,0.2643072 0.1254505,0.4009614 0.1143822,0.296873 0.2654116,0.578637 0.4216655,0.786669 0.1612977,0.2147475 0.4611582,0.5146825 0.6762687,0.6764375 0.3759339,0.282688 0.9297169,0.515351 1.4253743,0.59885 0.1478516,0.02491 0.2373141,0.03173 0.4160156,0.03171 0.2958563,-3.9e-5 0.5760981,-0.02106 0.7480469,-0.05612 0.278452,-0.05678 0.5085566,-0.136805 0.7910156,-0.275103 0.3644098,-0.178423 0.6121491,-0.360452 0.9160161,-0.673053 0.278475,-0.2864794 0.475994,-0.5898091 0.652143,-1.0014979 0.09074,-0.2120835 0.156536,-0.4334198 0.201457,-0.6777344 0.02879,-0.1565781 0.03293,-0.2238574 0.03293,-0.5351562 2e-6,-0.2589499 -0.0024,-0.3306015 -0.01575,-0.4609375 -0.02884,-0.2825321 -0.10718,-0.5646699 -0.238075,-0.8574219 -0.03486,-0.077965 -0.144304,-0.2926559 -0.188684,-0.3701309 -0.02185,-0.038142 -0.03972,-0.070222 -0.03972,-0.071289 0,-0.00107 0.170507,-0.00194 0.378906,-0.00194 H 11.51758 V 8.7792969 11.291016 H 7.2246094 2.9316406 Z M 4.8066288,8.6319483 c -0.00383,-0.00601 -0.00414,-0.00562 -0.00226,0.00282 0.00119,0.00537 0.00243,0.012402 0.00275,0.015625 3.218e-4,0.00322 0.00134,0.00195 0.00226,-0.00282 9.23e-4,-0.00477 -3.165e-4,-0.011803 -0.00275,-0.015625 z M 4.796852,8.573403 C 4.793082,8.552367 4.788572,8.531641 4.786844,8.527344 c -0.00569,-0.014139 -0.00407,0.003 0.00414,0.043568 0.00428,0.021155 0.00779,0.040075 0.00781,0.042044 1.95e-5,0.00197 0.00114,0.00248 0.00248,0.00114 0.00134,-0.00134 -6.449e-4,-0.019654 -0.00442,-0.04069 z M 4.782004,8.495191 c -9.904e-4,-0.0038 -0.00187,-0.00164 -0.00195,0.00481 -7.97e-5,0.00645 7.307e-4,0.00955 0.0018,0.00691 0.00107,-0.00264 0.00114,-0.00792 1.45e-4,-0.011719 z"
     id="path8736" />
  <path
     style="fill:#adb4bc;fill-opacity:1;stroke-width:0.00390625"
     d="M 2.9316406,8.7792969 V 6.2675781 H 4.086168 c 0.6349901,0 1.1537269,0.00132 1.1527485,0.00293 -0.05391,0.088783 -0.1583758,0.2917679 -0.2055581,0.3994141 -0.1197939,0.2733089 -0.2205703,0.6008329 -0.2518023,0.8183593 -0.026309,0.18324 -0.033359,0.5610979 -0.016101,0.8630111 0.0011,0.019187 0.0039,0.036063 0.00622,0.037501 0.0027,0.00167 0.00341,0.010972 0.00197,0.025661 -0.00124,0.012675 -6.987e-4,0.032714 0.00121,0.044531 l 0.00346,0.021484 7.957e-4,-0.019531 c 8.931e-4,-0.021921 0.00232,-0.020293 0.00597,0.00684 0.00173,0.012816 0.00432,0.018555 0.00838,0.018555 0.00378,0 0.00515,-0.00244 0.00383,-0.00684 -0.00113,-0.00376 -0.0057,-0.03584 -0.010161,-0.071289 -0.010901,-0.086653 -0.01158,-0.09041 -0.015853,-0.087769 -0.00204,0.00126 -0.00371,5.771e-4 -0.00371,-0.00152 0,-0.0021 0.00172,-0.0044 0.00383,-0.00511 0.00248,-8.414e-4 0.00218,-0.017888 -8.325e-4,-0.048177 C 4.7675735,8.2354323 4.7659184,8.1408991 4.7659279,8 4.7659435,7.7657427 4.7677317,7.7331076 4.789318,7.5730762 4.8495431,7.1265932 5.00873,6.6799877 5.2417671,6.3037109 l 0.022378,-0.036133 h 0.6482141 0.6482141 l -0.045912,0.040509 C 6.4594652,6.3567891 6.3474451,6.4694446 6.3005262,6.5234375 6.0687215,6.7901921 5.9051373,7.1033633 5.8189871,7.4453125 5.766613,7.6531968 5.755062,7.7586504 5.7548052,8.03125 c -1.242e-4,0.1320964 9.732e-4,0.1616943 0.00826,0.2226987 0.074892,0.6271576 0.3871066,1.171191 0.8892805,1.5495704 0.3085243,0.2324679 0.6751618,0.3802459 1.0683594,0.4306179 0.150068,0.01922 0.4375485,0.01636 0.5974938,-0.006 C 8.7785121,10.163964 9.201973,9.9601032 9.5410156,9.6394979 9.6769586,9.5109478 9.7786027,9.3913548 9.8763215,9.244982 10.066457,8.9601793 10.187831,8.6330745 10.232471,8.2851563 c 0.01187,-0.092528 0.01667,-0.2506067 0.01181,-0.3886719 -0.0059,-0.1678625 -0.0142,-0.2368288 -0.04501,-0.3747732 C 10.090552,7.0349028 9.8510449,6.6304654 9.4753367,6.2992592 l -0.035938,-0.031681 h 0.6481473 0.648147 l 0.04267,0.071289 c 0.188719,0.3152734 0.321166,0.6539668 0.392962,1.0048828 0.05337,0.2608366 0.0635,0.3828732 0.05986,0.7207031 -0.0022,0.2084158 -0.0044,0.2495478 -0.01857,0.353185 C 11.156595,8.827592 11.028311,9.2156597 10.832874,9.5664063 10.613844,9.959493 10.3213,10.299093 9.9680295,10.570359 9.5552873,10.887293 9.047442,11.108658 8.5351522,11.194936 8.4013791,11.217466 8.3068611,11.226566 8.1250682,11.234396 7.91561,11.243396 7.7320791,11.234213 7.533199,11.204676 7.0496838,11.132876 6.6006841,10.9587 6.1888318,10.683176 6.0044987,10.559861 5.863837,10.442385 5.695264,10.270966 5.2391692,9.8071696 4.9513028,9.2626305 4.8222801,8.6195961 4.81153,8.5660185 4.8027075,8.5180702 4.8026746,8.5130443 c -4.92e-5,-0.00751 -7.923e-4,-0.0081 -0.00418,-0.00328 -0.00316,0.00449 -0.00376,0.0029 -0.00257,-0.00684 0.00108,-0.0088 -5.82e-5,-0.012695 -0.0037,-0.012695 -0.00346,0 -0.00455,0.00301 -0.00321,0.00879 0.00113,0.00483 0.0065,0.035156 0.011946,0.067383 0.00544,0.032227 0.011534,0.064746 0.013536,0.072266 0.002,0.00752 0.00357,0.014551 0.00348,0.015625 -8.91e-5,0.00107 0.00146,0.00635 0.00345,0.011719 0.00659,0.017845 0.00885,0.03125 0.00526,0.03125 -0.00195,0 -0.00485,-0.00659 -0.00643,-0.014648 -0.00159,-0.00806 -0.00372,-0.012365 -0.00473,-0.00957 -0.00262,0.00721 0.014677,0.075003 0.019136,0.075003 0.00203,0 0.00267,0.00167 0.0014,0.00372 -0.00511,0.00827 0.046627,0.1848818 0.090182,0.3078195 0.1071022,0.3023071 0.2653694,0.6151276 0.4220901,0.8342756 0.1657468,0.2317686 0.4711832,0.5419236 0.7161286,0.7271926 0.416739,0.315205 1.077266,0.57056 1.6035156,0.619911 0.071489,0.0067 0.4189153,0.0066 0.5312501,-1.52e-4 0.2836328,-0.01706 0.3957878,-0.03262 0.5957031,-0.08264 0.2259226,-0.05653 0.4256195,-0.132572 0.6738281,-0.256578 0.3244941,-0.16212 0.5481238,-0.32284 0.8139308,-0.584966 0.326197,-0.3216787 0.531559,-0.6255483 0.721728,-1.0679244 0.111795,-0.2600582 0.197069,-0.5721684 0.225905,-0.8268275 0.01733,-0.1530712 0.01747,-0.6036829 2.42e-4,-0.8046875 -0.02098,-0.2447794 -0.07657,-0.4851973 -0.168014,-0.7265625 -0.06018,-0.158837 -0.17436,-0.3960609 -0.273029,-0.5672292 -0.01636,-0.028383 -0.02975,-0.052553 -0.02975,-0.053711 0,-0.00116 0.170507,-0.00211 0.378906,-0.00211 h 0.378906 v 2.511719 2.5117191 H 7.2246094 2.9316406 Z M 4.8066221,8.6358894 c -0.00426,-0.00664 -0.00437,-0.00663 -0.00223,1.722e-4 0.00124,0.00394 0.00239,0.00921 0.00256,0.011719 2.227e-4,0.00329 8.43e-4,0.00325 0.00223,-1.723e-4 0.00106,-0.0026 -9.38e-5,-0.00788 -0.00256,-0.011719 z m -0.00956,-0.058289 c -0.00603,-0.034412 -0.012847,-0.061638 -0.013558,-0.054163 -6.726e-4,0.00707 0.016206,0.092219 0.017937,0.090488 9.306e-4,-9.307e-4 -0.00104,-0.017276 -0.00438,-0.036324 z m -0.015096,-0.080286 c -0.00125,-0.00312 -0.00217,-0.00219 -0.00236,0.00236 -1.696e-4,0.00412 7.536e-4,0.00643 0.00205,0.00513 0.0013,-0.0013 0.00144,-0.00467 3.082e-4,-0.00749 z"
     id="path8738" />
  <rect
     style="fill:#adb4bc;fill-opacity:1"
     id="rect8792"
     width="0.41015625"
     height="0.953125"
     x="4.671875"
     y="7.828125" />
  <rect
     style="fill:#adb4bc;fill-opacity:1"
     id="rect8794"
     width="0.9921875"
     height="1.6601562"
     x="4.8046875"
     y="8.7070312" />
  <rect
     style="fill:#adb4bc;fill-opacity:1"
     id="rect8798"
     width="0.4765625"
     height="1.6328125"
     x="4.7070312"
     y="6.2070312" />
  <rect
     style="fill:#adb4bc;fill-opacity:1"
     id="rect8800"
     width="4.7617188"
     height="0.515625"
     x="4.9921875"
     y="4.5820312" />
  <rect
     style="fill:#adb4bc;fill-opacity:1"
     id="rect8802"
     width="2.1132812"
     height="0.10546875"
     x="4.8125"
     y="5.0273438" />
  <rect
     style="fill:#adb4bc;fill-opacity:1"
     id="rect8804"
     width="0.8984375"
     height="1.4179688"
     x="4.8046875"
     y="5.1054688"
     ry="0" />
  <rect
     style="fill:#adb4bc;fill-opacity:1"
     id="rect8806"
     width="0.9921875"
     height="0.14453125"
     x="5.765625"
     y="5.296875" />
  <rect
     style="fill:#adb4bc;fill-opacity:1"
     id="rect8808"
     width="1.1757812"
     height="0.98828125"
     x="5.515625"
     y="4.8125" />
  <rect
     style="fill:#adb4bc;fill-opacity:1"
     id="rect8810"
     width="1.9179688"
     height="1.1757812"
     x="9.3710938"
     y="4.9609375" />
  <rect
     style="fill:#adb4bc;fill-opacity:1"
     id="rect8812"
     width="1.0390625"
     height="2.1445312"
     x="10.523438"
     y="6.0703125" />
  <rect
     style="fill:#adb4bc;fill-opacity:1"
     id="rect8818"
     width="1.3007812"
     height="2.2773438"
     x="10.273438"
     y="8.1523438" />
  <rect
     style="fill:#adb4bc;fill-opacity:1"
     id="rect8822"
     width="6.0625"
     height="1.2265625"
     x="5.4375"
     y="10.273438" />
</svg>
