<svg viewBox="0 0 32 32" xmlns="http://www.w3.org/2000/svg"><g data-name="Layer 2"><path d="M30.87 14.23 26 22.67V8l3.77 2.18a3 3 0 0 1 1.1 4.05ZM6 8.26v14.08l-4.6-8a3 3 0 0 1 1.1-4.1Z" fill="#7661ff" class="fill-ff64c8"></path><path d="M21 4H11a3 3 0 0 0-3 3v18a3 3 0 0 0 3 3h10a3 3 0 0 0 3-3V7a3 3 0 0 0-3-3Zm-8 4a1 1 0 1 1-1 1 1 1 0 0 1 1-1Zm6 16a1 1 0 1 1 1-1 1 1 0 0 1-1 1Zm-3-4a4 4 0 1 1 4-4 4 4 0 0 1-4 4Z" fill="#ff6633" class="fill-5233ff"></path><circle cx="16" cy="16" r="2" fill="#7661ff" class="fill-ff64c8"></circle></g></svg>